HIERARCHY
ROOT Hips
{
	OFFSET -0.001795 -0.223333 0.028219
	CHANNELS 6 Xposition Yposition Zposition Zrotation Yrotation Xrotation 
	JOINT LeftUpLeg
	{
		OFFSET 0.069520 -0.091406 -0.006815
		CHANNELS 3 Zrotation Yrotation Xrotation
		JOINT LeftLeg
		{
			OFFSET 0.034277 -0.375199 -0.004496
			CHANNELS 3 Zrotation Yrotation Xrotation
			JOINT LeftFoot
			{
				OFFSET -0.013596 -0.397961 -0.043693
				CHANNELS 3 Zrotation Yrotation Xrotation
				JOINT LeftToe
				{
					OFFSET 0.026358 -0.055791 0.119288
					CHANNELS 3 Zrotation Yrotation Xrotation
					End Site
					{
						OFFSET 0.000000 0.000000 0.000000
					}
				}
			}
		}
	}
	JOINT RightUpLeg
	{
		OFFSET -0.067670 -0.090522 -0.004320
		CHANNELS 3 Zrotation Yrotation Xrotation
		JOINT RightLeg
		{
			OFFSET -0.038290 -0.382569 -0.008850
			CHANNELS 3 Zrotation Yrotation Xrotation
			JOINT RightFoot
			{
				OFFSET 0.015774 -0.398415 -0.042312
				CHANNELS 3 Zrotation Yrotation Xrotation
				JOINT RightToe
				{
					OFFSET -0.025372 -0.048144 0.123348
					CHANNELS 3 Zrotation Yrotation Xrotation
					End Site
					{
						OFFSET 0.000000 0.000000 0.000000
					}
				}
			}
		}
	}
	JOINT Spine
	{
		OFFSET -0.002533 0.108963 -0.026696
		CHANNELS 3 Zrotation Yrotation Xrotation
		JOINT Spine1
		{
			OFFSET 0.005487 0.135180 0.001092
			CHANNELS 3 Zrotation Yrotation Xrotation
			JOINT Spine2
			{
				OFFSET 0.001457 0.052922 0.025425
				CHANNELS 3 Zrotation Yrotation Xrotation
				JOINT Neck
				{
					OFFSET -0.002778 0.213870 -0.042857
					CHANNELS 3 Zrotation Yrotation Xrotation
					JOINT Head
					{
						OFFSET 0.005152 0.064970 0.051349
						CHANNELS 3 Zrotation Yrotation Xrotation
						End Site
						{
							OFFSET 0.000000 0.000000 0.000000
						}
					}
				}
				JOINT LeftShoulder
				{
					OFFSET 0.078845 0.121749 -0.034090
					CHANNELS 3 Zrotation Yrotation Xrotation
					JOINT LeftArm
					{
						OFFSET 0.090977 0.030469 -0.008868
						CHANNELS 3 Zrotation Yrotation Xrotation
						JOINT LeftForeArm
						{
							OFFSET 0.259612 -0.012772 -0.027456
							CHANNELS 3 Zrotation Yrotation Xrotation
							JOINT LeftHand
							{
								OFFSET 0.249234 0.008986 -0.001171
								CHANNELS 3 Zrotation Yrotation Xrotation
								End Site
								{
									OFFSET 0.000000 0.000000 0.000000
								}
							}
						}
					}
				}
				JOINT RightShoulder
				{
					OFFSET -0.081759 0.118833 -0.038615
					CHANNELS 3 Zrotation Yrotation Xrotation
					JOINT RightArm
					{
						OFFSET -0.096012 0.032551 -0.009143
						CHANNELS 3 Zrotation Yrotation Xrotation
						JOINT RightForeArm
						{
							OFFSET -0.253742 -0.013329 -0.021401
							CHANNELS 3 Zrotation Yrotation Xrotation
							JOINT RightHand
							{
								OFFSET -0.255298 0.007772 -0.005559
								CHANNELS 3 Zrotation Yrotation Xrotation
								End Site
								{
									OFFSET 0.000000 0.000000 0.000000
								}
							}
						}
					}
				}
			}
		}
	}
}
MOTION
Frames: 5
Frame Time: 0.050000
-0.103982 0.356718 0.977068 -6.420612 -5.952542 -25.645669 38.784081 19.041566 -60.828449 -18.888371 38.851178 132.439353 9.598113 34.197629 -42.912512 0.000000 0.000000 0.000000 -26.745236 -7.492780 -63.572410 37.489626 -57.864946 115.048142 -11.693866 -48.107014 -26.723484 0.000000 0.000000 0.000000 -7.022703 3.586127 79.256324 -3.425664 1.977704 6.222072 -4.948644 2.238378 -0.646731 13.593418 -4.031111 -29.378305 0.000000 0.000000 0.000000 0.463086 -44.191898 13.737781 -15.834765 -43.171863 2.941496 42.797463 -14.325829 -5.907528 0.000000 0.000000 0.000000 11.831177 31.857741 12.949518 28.219289 37.873434 6.148245 -46.852622 48.474167 -20.518608 0.000000 0.000000 0.000000 
-0.104386 0.357714 0.977162 -6.385739 -5.891262 -25.518908 38.930652 19.235737 -61.226700 -18.832149 38.786839 132.529171 9.638657 33.096608 -41.970334 0.000000 0.000000 0.000000 -26.631940 -7.464262 -63.739325 37.781513 -57.796896 114.515475 -11.834943 -48.160116 -26.313001 0.000000 0.000000 0.000000 -7.085264 3.602715 79.130369 -3.447690 1.988721 6.116446 -4.551008 2.145859 -0.683692 13.688938 -4.049889 -29.568747 0.000000 0.000000 0.000000 0.321878 -44.156051 13.796952 -14.845661 -42.878246 2.629210 41.960740 -13.166295 -5.317039 0.000000 0.000000 0.000000 11.664754 31.634045 12.788127 27.034744 38.115395 5.884586 -47.298460 47.666826 -20.398292 0.000000 0.000000 0.000000 
-0.105433 0.357790 0.977345 -6.295875 -5.828940 -25.438284 39.021877 19.374274 -61.543193 -18.575076 37.958899 132.473649 9.547905 31.552887 -41.883891 0.000000 0.000000 0.000000 -26.388452 -7.361351 -63.981404 38.681264 -58.304963 113.587710 -12.097227 -48.470626 -25.667232 0.000000 0.000000 0.000000 -7.192510 3.651423 78.844520 -3.355784 1.943558 6.440751 -4.520554 1.695083 -1.259194 13.282706 -3.951671 -29.096400 0.000000 0.000000 0.000000 0.300127 -44.234895 13.909018 -13.774402 -42.196283 2.294717 40.794517 -11.462540 -4.493399 0.000000 0.000000 0.000000 11.777742 31.662230 12.755134 26.990188 38.884686 6.091025 -48.504738 46.272324 -20.427899 0.000000 0.000000 0.000000 
-0.106918 0.358153 0.977216 -6.206027 -5.598606 -25.037724 39.027486 19.421199 -62.023982 -17.755962 36.150050 132.901035 9.310292 28.687481 -42.658287 0.000000 0.000000 0.000000 -26.361971 -7.478385 -64.490960 38.607257 -58.489878 113.757621 -12.762887 -48.542989 -23.580229 0.000000 0.000000 0.000000 -7.519806 3.815764 78.727833 -3.392452 1.947544 6.031845 -4.026485 1.772503 -0.762280 13.299552 -3.886554 -29.676649 0.000000 0.000000 0.000000 1.224976 -44.515859 13.676972 -11.940413 -41.802403 1.734440 39.300910 -9.924334 -3.750559 0.000000 0.000000 0.000000 10.823115 31.601135 12.490469 27.242130 40.171749 6.440683 -48.891674 44.609054 -19.778877 0.000000 0.000000 0.000000 
-0.108334 0.359705 0.976543 -5.961836 -5.415150 -24.671636 38.830953 19.282972 -62.157289 -18.035015 36.019678 131.944933 9.329275 28.524689 -42.867605 0.000000 0.000000 0.000000 -26.266610 -7.485156 -64.714207 38.813253 -58.320716 113.245350 -12.678684 -48.433336 -23.850424 0.000000 0.000000 0.000000 -7.778201 3.975983 78.652080 -3.066846 1.741459 5.804556 -4.085886 2.019451 -0.767200 12.869348 -3.546571 -30.212169 0.000000 0.000000 0.000000 2.153333 -44.597956 13.377405 -10.831118 -41.879735 1.397254 37.042987 -7.998121 -2.892915 0.000000 0.000000 0.000000 10.550001 31.750800 12.552600 27.197690 41.025331 6.627586 -48.392571 42.252331 -18.329401 0.000000 0.000000 0.000000 
